<svg xmlns="http://www.w3.org/2000/svg" xmlns:xlink="http://www.w3.org/1999/xlink" viewBox="0 0 1920 1080" width="528" height="297" preserveAspectRatio="xMidYMid meet" style="width: 100%; height: 100%; transform: translate3d(0px, 0px, 0px); content-visibility: visible; background-color: transparent;"><defs><clipPath id="__lottie_element_34"><rect width="1920" height="1080" x="0" y="0"/></clipPath></defs><g clip-path="url(#__lottie_element_34)"><g transform="matrix(1.5239100456237793,0,0,1.5239100456237793,971.9991455078125,518.0011596679688)" opacity="1" style="display: block;"><g opacity="1" transform="matrix(1,0,0,1,0,0)"><path fill="rgb(102,251,241)" fill-opacity="1" d=" M-156,-130 C-156,-130 -156,230 -156,230 C-156,230 120,52 120,52 C120,52 -156,-130 -156,-130z"/></g></g><g transform="matrix(1,0,0,1,719.9580078125,246.82400512695312)" opacity="1" style="display: block;"><g opacity="1" transform="matrix(1,0,0,1,236.23399353027344,293.1759948730469)"><path stroke-linecap="round" stroke-linejoin="miter" fill-opacity="0" stroke-miterlimit="10" stroke="rgb(2,38,36)" stroke-opacity="1" stroke-width="22" d=" M177.27099609375,0.1469999998807907 C177.31700134277344,-8.378000259399414 173.35499572753906,-16.922000885009766 165.38499450683594,-22.2549991607666 C165.38499450683594,-22.2549991607666 -139.5679931640625,-226.2729949951172 -139.5679931640625,-226.2729949951172 C-157.36000061035156,-238.17599487304688 -181.23399353027344,-225.4239959716797 -181.23399353027344,-204.01800537109375 C-181.23399353027344,-204.01800537109375 -181.23399353027344,-204.01800537109375 -181.23399353027344,-204.01800537109375 C-181.23399353027344,-204.01800537109375 -181.23399353027344,204.0189971923828 -181.23399353027344,204.0189971923828 C-181.23399353027344,225.4239959716797 -157.36000061035156,238.17599487304688 -139.5679931640625,226.2740020751953 C-139.5679931640625,226.2740020751953 165.38499450683594,22.2549991607666 165.38499450683594,22.2549991607666 C173.26400756835938,16.983999252319336 177.2259979248047,8.574000358581543 177.27099609375,0.1469999998807907"/></g></g><g style="display: none;"><g><path/></g><g><path/></g></g><g style="display: none;"><g><path stroke-linecap="round" stroke-linejoin="miter" fill-opacity="0" stroke-miterlimit="10"/></g><g><path stroke-linecap="round" stroke-linejoin="miter" fill-opacity="0" stroke-miterlimit="10"/></g></g><g style="display: none;"><g><path/></g></g><g style="display: none;"><g><path stroke-linecap="round" stroke-linejoin="miter" fill-opacity="0" stroke-miterlimit="10"/></g></g><g style="display: none;"><g><path/></g></g><g style="display: none;"><g><path stroke-linecap="round" stroke-linejoin="miter" fill-opacity="0" stroke-miterlimit="10"/></g><g><path stroke-linecap="round" stroke-linejoin="miter" fill-opacity="0" stroke-miterlimit="10"/></g></g><g style="display: none;"><g><path/></g></g><g style="display: none;"><g><path stroke-linecap="round" stroke-linejoin="miter" fill-opacity="0" stroke-miterlimit="10"/></g><g><path stroke-linecap="round" stroke-linejoin="miter" fill-opacity="0" stroke-miterlimit="10"/></g></g></g></svg>